<?xml version="1.0" encoding="utf-8"?><svg xmlns="http://www.w3.org/2000/svg" width="298.137" height="117.752" viewBox="0 0 298.137 117.752"><g transform="translate(-66.546 -154.481)"><g transform="translate(66.546 154.481)"><path d="M164.609,191.542l18.5,46.563V154.481H66.546V271.044H93.78V211.487h17.9v59.557h4.962l31.909-79.5Z" transform="translate(-66.546 -154.481)" fill="#f70b8c"/><path d="M155.728,215.573H155.4l-8.193,27.275h16.71Z" transform="translate(-65.535 -153.716)" fill="#f70b8c"/><path d="M169.432,258.481H141.725l-4.1,11.259h35.6Z" transform="translate(-65.655 -153.178)" fill="#f70b8c"/><path d="M155.4,215.573h.324l8.192,27.275h-16.71Z" transform="translate(-65.535 -153.716)" fill="#f70b8c"/><circle cx="12.583" cy="12.583" r="12.583" transform="translate(23.018 24.943)" fill="#0b0068"/></g><g transform="translate(192.129 232.826)"><path d="M204.2,271.059c-7.606,0-13.63-3.931-13.63-12v-1.225h9.6c0,2.45,1.124,5.155,3.931,5.155a3.649,3.649,0,0,0,3.676-3.624c0-2.45-2.042-3.266-4.033-4.135-1.123-.51-2.246-.97-3.37-1.429-4.9-2.042-9.238-4.9-9.238-10.822,0-7.044,6.789-11.128,13.221-11.128,3.676,0,7.811,1.378,10.209,4.287a11.084,11.084,0,0,1,2.5,7.452h-9.546c-.307-2.092-1.022-3.674-3.472-3.674a3.145,3.145,0,0,0-3.317,2.961,2.792,2.792,0,0,0,.356,1.583c.919,1.531,5.871,3.471,7.453,4.185,5,2.3,8.831,4.9,8.831,10.823C217.374,267.384,211.657,271.059,204.2,271.059Z" transform="translate(-190.574 -231.856)" fill="#0b0068"/><path d="M235.786,271.149a15.034,15.034,0,0,1-15.162-15.16,15.161,15.161,0,0,1,29.965-3.165h-8.576a6.519,6.519,0,0,0-6.33-3.982c-4.084,0-6.534,3.369-6.534,7.2,0,3.981,2.6,7.2,6.739,7.2a6.517,6.517,0,0,0,6.125-3.777h8.627A15.1,15.1,0,0,1,235.786,271.149Z" transform="translate(-190.197 -231.742)" fill="#0b0068"/><path d="M271.868,270.336V254.92c0-3.063-.869-5.921-4.543-5.921s-4.748,2.4-4.748,5.616v15.722H254.1V232.562h8.474v12.046h.1c1.48-2.655,4.441-3.573,7.3-3.573a10.318,10.318,0,0,1,7.707,3.114c2.705,3.115,2.655,6.483,2.655,10.362v15.825Z" transform="translate(-189.778 -231.847)" fill="#0b0068"/><path d="M299.921,271.1c-8.677,0-15.263-6.382-15.263-15.059s6.586-15.058,15.263-15.058,15.263,6.38,15.263,15.058S308.6,271.1,299.921,271.1Zm0-22.206a7.156,7.156,0,1,0,6.789,7.147A6.931,6.931,0,0,0,299.921,248.893Z" transform="translate(-189.394 -231.742)" fill="#0b0068"/><path d="M333.5,271.1c-8.677,0-15.263-6.382-15.263-15.059s6.586-15.058,15.263-15.058,15.263,6.38,15.263,15.058S342.177,271.1,333.5,271.1Zm0-22.206a7.156,7.156,0,1,0,6.789,7.147A6.931,6.931,0,0,0,333.5,248.893Z" transform="translate(-188.973 -231.742)" fill="#0b0068"/><path d="M352.623,270.336V232.562H361.1v37.774Z" transform="translate(-188.542 -231.847)" fill="#0b0068"/></g></g></svg>